<?xml version="1.0" encoding="utf-8"?>
<!-- Generator: Adobe Illustrator 26.0.1, SVG Export Plug-In . SVG Version: 6.00 Build 0)  -->
<svg version="1.1" id="Layer_1" xmlns="http://www.w3.org/2000/svg" xmlns:xlink="http://www.w3.org/1999/xlink" x="0px" y="0px"
	 viewBox="0 0 48 48" style="enable-background:new 0 0 48 48;" xml:space="preserve">
<style type="text/css">
	.st0{fill:#FFFFFF;}
	.st1{fill:#0698F2;}
</style>
<g>
	<circle class="st0" cx="24" cy="24" r="23.4"/>
	<path class="st1" d="M24,47.9C10.8,47.9,0.1,37.2,0.1,24C0.1,10.8,10.8,0.1,24,0.1c13.2,0,23.9,10.7,23.9,23.9
		C47.9,37.2,37.2,47.9,24,47.9z M24,1.1C11.4,1.1,1.1,11.4,1.1,24S11.4,46.9,24,46.9S46.9,36.6,46.9,24S36.6,1.1,24,1.1z"/>
</g>
<path class="st1" d="M13.6,34.2c-2,0-3.8-0.7-5.2-2.2C7,30.7,6.3,29,6.3,27s0.7-3.8,2.2-5.2c1.4-1.4,3.2-2.2,5.2-2.2h17.5l-3.7-3.7
	h-5.6v-2.2h6.5l5.9,5.9c2.2,0,4,0.8,5.4,2.3s2.1,3.2,2.1,5.1c0,2-0.7,3.8-2.2,5.2c-1.4,1.4-3.2,2.2-5.2,2.2s-3.8-0.7-5.2-2.2
	C27.7,30.7,27,29,27,27c0-0.4,0-0.9,0.1-1.3c0.1-0.4,0.2-0.9,0.4-1.3l-4.1,4.1H21c-0.3,1.7-1.2,3.1-2.6,4.3
	C17,33.8,15.4,34.2,13.6,34.2z M34.2,32c1.4,0,2.7-0.5,3.7-1.5s1.5-2.2,1.5-3.7c0-1.4-0.5-2.7-1.5-3.7s-2.2-1.5-3.7-1.5
	c-1.4,0-2.7,0.5-3.7,1.5S29,25.3,29,26.8c0,1.4,0.5,2.7,1.5,3.7C31.7,31.6,32.9,32,34.2,32z M13.6,32c1.1,0,2.1-0.3,3.1-1
	s1.6-1.7,2-3h-4.3v-2.2h4.3c-0.3-1.3-1-2.3-2-3s-2-1-3.1-1c-1.4,0-2.7,0.5-3.7,1.5S8.4,25.5,8.4,27c0,1.4,0.5,2.7,1.5,3.7
	C11,31.6,12.1,32,13.6,32z"/>
</svg>
