<?xml version="1.0" encoding="utf-8"?>
<!-- Generator: Adobe Illustrator 26.0.1, SVG Export Plug-In . SVG Version: 6.00 Build 0)  -->
<svg version="1.1" id="Layer_1" xmlns="http://www.w3.org/2000/svg" xmlns:xlink="http://www.w3.org/1999/xlink" x="0px" y="0px"
	 viewBox="0 0 48 48" style="enable-background:new 0 0 48 48;" xml:space="preserve">
<style type="text/css">
	.st0{fill:#FFFFFF;}
	.st1{fill:#0698F2;}
</style>
<g>
	<circle class="st0" cx="24" cy="24" r="23.4"/>
	<path class="st1" d="M24,47.9C10.8,47.9,0.1,37.2,0.1,24C0.1,10.8,10.8,0.1,24,0.1c13.2,0,23.9,10.7,23.9,23.9
		C47.9,37.2,37.2,47.9,24,47.9z M24,1.1C11.4,1.1,1.1,11.4,1.1,24S11.4,46.9,24,46.9S46.9,36.6,46.9,24S36.6,1.1,24,1.1z"/>
</g>
<path class="st1" d="M14.5,39.7c-0.4,0-0.7-0.1-0.9-0.3c-0.3-0.2-0.4-0.5-0.4-0.8v-3.5c-0.8-0.4-1.4-1.1-1.8-1.9s-0.6-1.7-0.6-2.6
	V14.2c0-2,1.1-3.5,3.2-4.5s5.4-1.4,10-1.4s7.9,0.5,10,1.4s3.2,2.4,3.2,4.5v16.4c0,0.9-0.2,1.8-0.6,2.6s-1,1.5-1.8,1.9v3.5
	c0,0.3-0.1,0.6-0.4,0.8c-0.3,0.2-0.6,0.3-0.9,0.3h-0.8c-0.4,0-0.7-0.1-1-0.3s-0.4-0.5-0.4-0.8v-2.3H16.6v2.3c0,0.3-0.1,0.6-0.4,0.8
	c-0.3,0.2-0.6,0.3-1,0.3C15.2,39.7,14.5,39.7,14.5,39.7z M13.3,22.7h21.5v-7.1H13.3V22.7z M17.6,31.8c0.6,0,1.2-0.2,1.6-0.7
	c0.4-0.4,0.7-1,0.7-1.6s-0.2-1.2-0.7-1.6c-0.4-0.4-1-0.7-1.6-0.7s-1.2,0.2-1.6,0.7c-0.4,0.4-0.7,1-0.7,1.6s0.2,1.2,0.7,1.6
	C16.5,31.5,17,31.8,17.6,31.8z M30.4,31.8c0.6,0,1.2-0.2,1.6-0.7c0.4-0.4,0.7-1,0.7-1.6s-0.2-1.2-0.7-1.6c-0.4-0.4-1-0.7-1.6-0.7
	s-1.2,0.2-1.6,0.7c-0.4,0.4-0.7,1-0.7,1.6s0.2,1.2,0.7,1.6C29.2,31.5,29.7,31.8,30.4,31.8z"/>
</svg>
