<?xml version="1.0" encoding="utf-8"?>
<!-- Generator: Adobe Illustrator 26.0.1, SVG Export Plug-In . SVG Version: 6.00 Build 0)  -->
<svg version="1.1" id="Layer_1" xmlns="http://www.w3.org/2000/svg" xmlns:xlink="http://www.w3.org/1999/xlink" x="0px" y="0px"
	 viewBox="0 0 48 48" style="enable-background:new 0 0 48 48;" xml:space="preserve">
<style type="text/css">
	.st0{fill:#FFFFFF;}
	.st1{fill:#0698F2;}
	.st2{fill:#FF0000;}
</style>
<g>
	<circle class="st0" cx="24" cy="24" r="23.3"/>
	<path class="st1" d="M24,47.8C10.9,47.8,0.2,37.1,0.2,24S10.9,0.2,24,0.2S47.8,10.9,47.8,24S37.1,47.8,24,47.8z M24,1.2
		C11.4,1.2,1.2,11.4,1.2,24c0,12.6,10.2,22.8,22.8,22.8c12.6,0,22.8-10.2,22.8-22.8C46.8,11.4,36.6,1.2,24,1.2z"/>
</g>
<path class="st2" d="M182.2,36.2h2.2v-4.4h4.3v-2.2h-4.3v-4.4h-2.2v4.4h-4.4v2.2h4.4V36.2z M171,41.9c-0.6,0-1.1-0.2-1.5-0.7
	c-0.4-0.4-0.7-0.9-0.7-1.5V20.8c0-0.6,0.2-1.1,0.7-1.5c0.4-0.4,0.9-0.7,1.5-0.7h6.5V15c0-0.6,0.2-1.1,0.7-1.5
	c0.4-0.4,0.9-0.7,1.5-0.7h7.2c0.6,0,1.1,0.2,1.5,0.7c0.4,0.4,0.7,0.9,0.7,1.5v3.6h6.5c0.6,0,1.1,0.2,1.5,0.7s0.7,0.9,0.7,1.5v18.9
	c0,0.6-0.2,1.1-0.7,1.5s-0.9,0.7-1.5,0.7H171z M179.7,18.7h7.2V15h-7.2V18.7z"/>
<path class="st1" d="M12.6,33.6v2.2c0,0.3-0.1,0.6-0.4,0.9C12,36.9,11.8,37,11.4,37h-0.8c-0.3,0-0.6-0.1-0.9-0.4s-0.4-0.5-0.4-0.9
	V22.6l3.5-10.4c0.1-0.4,0.4-0.7,0.7-0.9s0.7-0.3,1.1-0.3h18.8c0.4,0,0.8,0.1,1.1,0.3c0.3,0.2,0.5,0.5,0.7,0.9l3.5,10.4v13.2
	c0,0.3-0.1,0.6-0.4,0.9S37.8,37,37.4,37h-0.9c-0.3,0-0.6-0.1-0.9-0.4s-0.4-0.5-0.4-0.9v-2.2H12.6z M12.7,20.2h22.5L33,13.4H15
	L12.7,20.2z M16.1,29.1c0.6,0,1.2-0.2,1.6-0.6c0.4-0.4,0.6-0.9,0.6-1.6c0-0.6-0.2-1.2-0.6-1.6c-0.4-0.4-0.9-0.7-1.6-0.7
	c-0.6,0-1.2,0.2-1.6,0.7c-0.4,0.4-0.7,1-0.7,1.6c0,0.6,0.2,1.2,0.7,1.6C14.9,28.9,15.5,29.1,16.1,29.1z M31.9,29.1
	c0.6,0,1.2-0.2,1.6-0.6c0.4-0.4,0.7-0.9,0.7-1.6c0-0.6-0.2-1.2-0.7-1.6c-0.4-0.4-1-0.7-1.6-0.7c-0.6,0-1.2,0.2-1.6,0.7
	c-0.4,0.4-0.6,1-0.6,1.6c0,0.6,0.2,1.2,0.6,1.6C30.8,28.9,31.3,29.1,31.9,29.1z"/>
</svg>
