<?xml version="1.0" encoding="utf-8"?>
<!-- Generator: Adobe Illustrator 26.0.1, SVG Export Plug-In . SVG Version: 6.00 Build 0)  -->
<svg version="1.1" id="Layer_1" xmlns="http://www.w3.org/2000/svg" xmlns:xlink="http://www.w3.org/1999/xlink" x="0px" y="0px"
	 viewBox="0 0 48 48" style="enable-background:new 0 0 48 48;" xml:space="preserve">
<style type="text/css">
	.st0{fill:#FFFFFF;}
	.st1{fill:#0698F2;}
	.st2{display:none;}
	.st3{display:inline;}
	.st4{fill:#F7BC00;}
</style>
<circle class="st0" cx="24" cy="24" r="23.2"/>
<g>
	<path class="st1" d="M24,47.9C10.8,47.9,0.1,37.2,0.1,24S10.8,0.1,24,0.1S47.9,10.8,47.9,24S37.2,47.9,24,47.9z M24,1.1
		C11.4,1.1,1.1,11.4,1.1,24S11.4,46.9,24,46.9S46.9,36.6,46.9,24S36.6,1.1,24,1.1z"/>
</g>
<g class="st2">
	<g class="st3">
		<rect x="15.4" y="13.4" width="17.2" height="20.5"/>
	</g>
	<g class="st3">
		<path class="st4" d="M19.3,29.2l4.7-3.4l4.5,3.4l-1.9-5.5l4.7-3.3h-5.6L24,14.9l-1.7,5.5h-5.6l4.6,3.3L19.3,29.2z M24,41.6
			c-4.1-1-7.5-3.4-10.1-7.1s-4-7.8-4-12.3V11.7L24,6.4l14.1,5.3v10.5c0,4.5-1.3,8.5-4,12.3S28.1,40.6,24,41.6z"/>
		<path d="M24,42h-0.1c-4.2-1-7.7-3.5-10.4-7.3s-4-8-4-12.5V11.4L24,6l14.5,5.4v10.8c0,4.5-1.4,8.7-4,12.5
			c-2.7,3.8-6.2,6.3-10.4,7.3H24z M10.4,12v10.1c0,4.3,1.3,8.4,3.9,12c2.5,3.6,5.8,5.9,9.7,6.9c3.9-1,7.2-3.3,9.7-6.9
			c2.6-3.6,3.9-7.7,3.9-12V12L24,6.9L10.4,12z M29.4,30.5L24,26.4l-5.5,4.1l2.3-6.6L15.4,20H22l2-6.6l2,6.6h6.7l-5.5,3.9L29.4,30.5z
			 M18.1,20.8l3.7,2.7L20.2,28l3.8-2.8l3.6,2.8l-1.5-4.5l3.8-2.7h-4.6L24,16.4l-1.3,4.4H18.1z"/>
	</g>
</g>
<g>
	<path class="st1" d="M24,8.9c5.4,0,10.1,4,11,9.3c0.3,2-0.1,3.9-0.8,5.7c-1.2,2.9-2.8,5.5-4.5,8.1c-1.5,2.3-3.1,4.4-4.8,6.6
		c-0.5,0.6-1.2,0.7-1.7,0c-2.9-3.7-5.6-7.5-7.8-11.6c-0.9-1.7-1.7-3.4-2.2-5.3c-0.5-2.2-0.2-4.2,0.7-6.2c1.6-3.5,4.2-5.6,8-6.4
		C22.5,8.9,23.3,8.9,24,8.9z M24,23c2.2,0,4-1.8,4-4c0-2.2-1.8-4.1-4-4.1c-2.2,0-4,1.8-4,4.1C20,21.2,21.8,23,24,23z"/>
</g>
</svg>
