<?xml version="1.0" encoding="utf-8"?>
<!-- Generator: Adobe Illustrator 26.0.1, SVG Export Plug-In . SVG Version: 6.00 Build 0)  -->
<svg version="1.1" id="Layer_1" xmlns="http://www.w3.org/2000/svg" xmlns:xlink="http://www.w3.org/1999/xlink" x="0px" y="0px"
	 viewBox="0 0 48 48" style="enable-background:new 0 0 48 48;" xml:space="preserve">
<style type="text/css">
	.st0{fill:#FFFFFF;}
	.st1{fill:#F44336;}
	.st2{fill:#FF0000;}
	.st3{fill:#0698F2;}
</style>
<g>
	<circle class="st0" cx="24" cy="24" r="23.3"/>
	<path class="st1" d="M24,47.8C10.9,47.8,0.2,37.1,0.2,24S10.9,0.2,24,0.2S47.8,10.9,47.8,24S37.1,47.8,24,47.8z M24,1.2
		C11.4,1.2,1.2,11.4,1.2,24c0,12.6,10.2,22.8,22.8,22.8c12.6,0,22.8-10.2,22.8-22.8C46.8,11.4,36.6,1.2,24,1.2z"/>
</g>
<path class="st2" d="M182.2,36.2h2.2v-4.4h4.3v-2.2h-4.3v-4.4h-2.2v4.4h-4.4v2.2h4.4V36.2z M171,41.9c-0.6,0-1.1-0.2-1.5-0.7
	c-0.4-0.4-0.7-0.9-0.7-1.5V20.8c0-0.6,0.2-1.1,0.7-1.5c0.4-0.4,0.9-0.7,1.5-0.7h6.5V15c0-0.6,0.2-1.1,0.7-1.5
	c0.4-0.4,0.9-0.7,1.5-0.7h7.2c0.6,0,1.1,0.2,1.5,0.7c0.4,0.4,0.7,0.9,0.7,1.5v3.6h6.5c0.6,0,1.1,0.2,1.5,0.7s0.7,0.9,0.7,1.5v18.9
	c0,0.6-0.2,1.1-0.7,1.5s-0.9,0.7-1.5,0.7H171z M179.7,18.7h7.2V15h-7.2V18.7z"/>
<path class="st3" d="M102,26.2c-1.2,0-2.1-0.4-2.9-1.2s-1.2-1.8-1.2-2.9h-3V7.8c0-0.7,0.3-1.4,0.8-1.9c0.5-0.5,1.2-0.8,1.9-0.8h21.7
	L128,14V22h-3c0,1.2-0.4,2.1-1.2,2.9c-0.8,0.8-1.8,1.2-2.9,1.2c-1.2,0-2.1-0.4-2.9-1.2c-0.8-0.8-1.2-1.8-1.2-2.9h-10.6
	c0,1.2-0.4,2.1-1.2,2.9C104.1,25.9,103.1,26.2,102,26.2z M115.9,12.7h7.3l-5.3-5.3h-2C115.9,7.4,115.9,12.7,115.9,12.7z M106.5,12.7
	h7.1V7.4h-7.1V12.7z M97.2,12.7h7.1V7.4h-7.1V12.7z M102,24.4c0.6,0,1.2-0.2,1.6-0.7c0.4-0.4,0.7-1,0.7-1.6s-0.2-1.2-0.7-1.6
	c-0.4-0.4-1-0.7-1.6-0.7s-1.2,0.2-1.6,0.7c-0.4,0.4-0.7,1-0.7,1.6s0.2,1.2,0.7,1.6C100.9,24.1,101.4,24.4,102,24.4z M120.8,24.4
	c0.6,0,1.2-0.2,1.6-0.7c0.4-0.4,0.7-1,0.7-1.6s-0.2-1.2-0.7-1.6c-0.4-0.4-1-0.7-1.6-0.7c-0.6,0-1.2,0.2-1.6,0.7
	c-0.4,0.4-0.7,1-0.7,1.6s0.2,1.2,0.7,1.6C119.6,24.1,120.2,24.4,120.8,24.4z"/>
<path class="st1" d="M23,31.8H25v-3.8h3.8V26H25v-3.8H23V26h-3.8v1.9H23V31.8z M13.1,36.8c-0.5,0-1-0.2-1.3-0.6s-0.6-0.8-0.6-1.3
	V18.2c0-0.5,0.2-1,0.6-1.3s0.8-0.6,1.3-0.6h5.8v-3.2c0-0.5,0.2-1,0.6-1.3s0.8-0.6,1.3-0.6h6.4c0.5,0,1,0.2,1.3,0.6s0.6,0.8,0.6,1.3
	v3.2h5.8c0.5,0,1,0.2,1.3,0.6s0.6,0.8,0.6,1.3v16.6c0,0.5-0.2,1-0.6,1.3s-0.8,0.6-1.3,0.6H13.1z M20.8,16.3h6.4v-3.2h-6.4V16.3z"/>
</svg>
