<?xml version="1.0" encoding="utf-8"?>
<!-- Generator: Adobe Illustrator 26.0.1, SVG Export Plug-In . SVG Version: 6.00 Build 0)  -->
<svg version="1.1" id="Layer_1" xmlns="http://www.w3.org/2000/svg" xmlns:xlink="http://www.w3.org/1999/xlink" x="0px" y="0px"
	 viewBox="0 0 48 48" style="enable-background:new 0 0 48 48;" xml:space="preserve">
<style type="text/css">
	.st0{fill:#FFFFFF;}
	.st1{fill:#0698F2;}
	.st2{fill:#FF0000;}
</style>
<g>
	<circle class="st0" cx="24" cy="24" r="23.3"/>
	<path class="st1" d="M24,47.8C10.9,47.8,0.2,37.1,0.2,24S10.9,0.2,24,0.2S47.8,10.9,47.8,24S37.1,47.8,24,47.8z M24,1.2
		C11.4,1.2,1.2,11.4,1.2,24c0,12.6,10.2,22.8,22.8,22.8c12.6,0,22.8-10.2,22.8-22.8C46.8,11.4,36.6,1.2,24,1.2z"/>
</g>
<path class="st2" d="M182.2,36.2h2.2v-4.4h4.3v-2.2h-4.3v-4.4h-2.2v4.4h-4.4v2.2h4.4V36.2z M171,41.9c-0.6,0-1.1-0.2-1.5-0.7
	c-0.4-0.4-0.7-0.9-0.7-1.5V20.8c0-0.6,0.2-1.1,0.7-1.5c0.4-0.4,0.9-0.7,1.5-0.7h6.5V15c0-0.6,0.2-1.1,0.7-1.5
	c0.4-0.4,0.9-0.7,1.5-0.7h7.2c0.6,0,1.1,0.2,1.5,0.7c0.4,0.4,0.7,0.9,0.7,1.5v3.6h6.5c0.6,0,1.1,0.2,1.5,0.7s0.7,0.9,0.7,1.5v18.9
	c0,0.6-0.2,1.1-0.7,1.5s-0.9,0.7-1.5,0.7H171z M179.7,18.7h7.2V15h-7.2V18.7z"/>
<path class="st1" d="M41.7,23.6c-0.4-1.2-1.3-1.8-2.5-2c-2.4-0.3-4.7-0.7-7.1-1c-0.3,0-0.5-0.1-0.7-0.3c-0.9-0.9-1.8-1.9-2.7-2.8
	c-0.9-1-2-1.4-3.3-1.4c-1.6,0-3.2,0-4.8,0c-1.1,0-1.7,0.6-1.7,1.7c0,0.7,0,1.5,0,2.2c0,0.5,0,0.5-0.5,0.5c-3.6,0-7.1,0-10.7,0
	c-1,0-1.7,0.6-1.7,1.6c0,1.6,0,3.2,0,4.8c0,1.1,1,2,2.1,2.1c0.4,0,0.8,0,1.2,0h0c0.2,0,0.5,0,0.7,0c0.1,0,0.2,0,0.2,0h1
	c0.3,1.6,1.7,2.9,3.4,2.9c1.7,0,3.1-1.3,3.4-2.9h1.1c0.1,0,0.1,0,0.2,0c1.9,0,3.8,0,5.8,0c1.9,0,3.9,0,5.8,0c0,0,0.1,0,0.1,0h1.1
	c0.3,1.6,1.7,2.8,3.4,2.9c1.7,0,3.2-1.2,3.5-2.9h0.5c0,0,0.2,0,0.5-0.1c0.1,0,0.1,0,0.2-0.1c0,0,0.1,0,0.1-0.1
	c0.3-0.1,0.6-0.2,0.7-0.4l0,0c0.4-0.3,0.6-0.8,0.7-1.4C42.1,25.9,42,24.7,41.7,23.6z M14.7,30.4c-1,0-1.9-0.8-1.9-1.9
	c0-1,0.8-1.9,1.9-1.9s1.9,0.8,1.9,1.9C16.6,29.5,15.8,30.4,14.7,30.4z M29.5,20.5c-1.2,0-2.5,0-3.7,0c-1,0-1.4-0.4-1.4-1.4
	c0-0.5,0-1.1,0-1.6c0-0.2,0.1-0.3,0.3-0.3c1.3-0.1,2.5,0.2,3.4,1.3c0.5,0.7,1.2,1.3,1.8,1.9C29.7,20.5,29.6,20.5,29.5,20.5z
	 M35.8,30.4c-1,0-1.9-0.8-1.9-1.9c0-1,0.8-1.9,1.9-1.9c1,0,1.9,0.8,1.9,1.9C37.6,29.5,36.8,30.4,35.8,30.4z"/>
</svg>
