<?xml version="1.0" encoding="utf-8"?>
<!-- Generator: Adobe Illustrator 26.0.1, SVG Export Plug-In . SVG Version: 6.00 Build 0)  -->
<svg version="1.1" id="Layer_1" xmlns="http://www.w3.org/2000/svg" xmlns:xlink="http://www.w3.org/1999/xlink" x="0px" y="0px"
	 viewBox="0 0 48 48" style="enable-background:new 0 0 48 48;" xml:space="preserve">
<style type="text/css">
	.st0{fill:#FFFFFF;}
	.st1{fill:#0698F2;}
	.st2{fill:#FF0000;}
</style>
<g>
	<circle class="st0" cx="24" cy="24" r="23.3"/>
	<path class="st1" d="M24,47.8C10.9,47.8,0.2,37.1,0.2,24S10.9,0.2,24,0.2S47.8,10.9,47.8,24S37.1,47.8,24,47.8z M24,1.2
		C11.4,1.2,1.2,11.4,1.2,24c0,12.6,10.2,22.8,22.8,22.8c12.6,0,22.8-10.2,22.8-22.8C46.8,11.4,36.6,1.2,24,1.2z"/>
</g>
<path class="st2" d="M182.2,36.2h2.2v-4.4h4.3v-2.2h-4.3v-4.4h-2.2v4.4h-4.4v2.2h4.4V36.2z M171,41.9c-0.6,0-1.1-0.2-1.5-0.7
	c-0.4-0.4-0.7-0.9-0.7-1.5V20.8c0-0.6,0.2-1.1,0.7-1.5c0.4-0.4,0.9-0.7,1.5-0.7h6.5V15c0-0.6,0.2-1.1,0.7-1.5
	c0.4-0.4,0.9-0.7,1.5-0.7h7.2c0.6,0,1.1,0.2,1.5,0.7c0.4,0.4,0.7,0.9,0.7,1.5v3.6h6.5c0.6,0,1.1,0.2,1.5,0.7s0.7,0.9,0.7,1.5v18.9
	c0,0.6-0.2,1.1-0.7,1.5s-0.9,0.7-1.5,0.7H171z M179.7,18.7h7.2V15h-7.2V18.7z"/>
<path class="st1" d="M35.3,19.6l-5-5l-3.9,4l-3.8-3.8l4.8-4.8c0.2-0.2,0.6-0.5,0.9-0.6c0.2-0.1,0.6-0.1,1-0.1c0.3,0,0.7,0.1,1,0.2
	s0.6,0.3,0.9,0.6L35,14c0.4,0.4,0.7,0.8,0.9,1.3c0.2,0.5,0.3,1,0.3,1.5c0,0.5,0,1-0.2,1.5C35.8,18.7,35.6,19.1,35.3,19.6z
	 M14.8,26.4c-0.5-0.5-0.7-1.1-0.7-2c0-0.8,0.2-1.5,0.7-2l3.4-3.5l3.9,3.9l-3.5,3.5c-0.6,0.6-1.2,0.8-2,0.8
	C16,27.2,15.3,26.9,14.8,26.4z M12.5,37.9c-0.2-0.2-0.4-0.6-0.6-0.9s-0.2-0.7-0.2-1c0-0.3,0.1-0.7,0.2-1c0.2-0.3,0.3-0.7,0.6-0.9
	l11.3-11.2l-5.5-5.5c-0.4-0.4-0.6-0.8-0.6-1.3c0-0.5,0.2-1,0.6-1.3s0.8-0.6,1.3-0.6c0.5,0,1,0.2,1.3,0.6l5.5,5.5l2.1-2.1l4,4
	c0.2,0.2,0.3,0.5,0.3,0.8s-0.1,0.6-0.3,0.8c-0.3,0.3-0.7,0.4-1,0.3c-0.3-0.1-0.6-0.3-0.9-0.6L16.1,37.9c-0.2,0.2-0.6,0.4-0.8,0.6
	c-0.3,0.2-0.7,0.2-1,0.2c-0.3,0-0.7-0.1-1-0.2C13,38.4,12.7,38.2,12.5,37.9z"/>
</svg>
