<?xml version="1.0" encoding="utf-8"?>
<!-- Generator: Adobe Illustrator 26.0.1, SVG Export Plug-In . SVG Version: 6.00 Build 0)  -->
<svg version="1.1" id="Layer_1" xmlns="http://www.w3.org/2000/svg" xmlns:xlink="http://www.w3.org/1999/xlink" x="0px" y="0px"
	 viewBox="0 0 48 48" style="enable-background:new 0 0 48 48;" xml:space="preserve">
<style type="text/css">
	.st0{fill:#FFFFFF;}
	.st1{fill:#0698F2;}
	.st2{display:none;}
	.st3{display:inline;}
	.st4{fill:#F7BC00;}
</style>
<circle class="st0" cx="24" cy="24" r="23.2"/>
<g>
	<path class="st1" d="M24,47.9C10.8,47.9,0.1,37.2,0.1,24C0.1,10.8,10.8,0.1,24,0.1c13.2,0,23.9,10.7,23.9,23.9
		C47.9,37.2,37.2,47.9,24,47.9z M24,1.1C11.4,1.1,1.1,11.4,1.1,24S11.4,46.9,24,46.9S46.9,36.6,46.9,24S36.6,1.1,24,1.1z"/>
</g>
<g class="st2">
	<g class="st3">
		<rect x="15.4" y="13.4" width="17.2" height="20.5"/>
	</g>
	<g class="st3">
		<path class="st4" d="M19.3,29.2l4.7-3.4l4.5,3.4l-1.9-5.5l4.7-3.3h-5.6L24,14.9l-1.7,5.5h-5.6l4.6,3.3L19.3,29.2z M24,41.6
			c-4.1-1-7.5-3.4-10.1-7.1s-4-7.8-4-12.3V11.7L24,6.4l14.1,5.3v10.5c0,4.5-1.3,8.5-4,12.3S28.1,40.6,24,41.6z"/>
		<path d="M24,42h-0.1c-4.2-1-7.7-3.5-10.4-7.3s-4-8-4-12.5V11.4L24,6l14.5,5.4v10.8c0,4.5-1.4,8.7-4,12.5
			c-2.7,3.8-6.2,6.3-10.4,7.3H24z M10.4,12v10.1c0,4.3,1.3,8.4,3.9,12c2.5,3.6,5.8,5.9,9.7,6.9c3.9-1,7.2-3.3,9.7-6.9
			c2.6-3.6,3.9-7.7,3.9-12V12L24,6.9L10.4,12z M29.4,30.5L24,26.4l-5.5,4.1l2.3-6.6L15.4,20H22l2-6.6l2,6.6h6.7l-5.5,3.9L29.4,30.5z
			 M18.1,20.8l3.7,2.7L20.2,28l3.8-2.8l3.6,2.8l-1.5-4.5l3.8-2.7h-4.6L24,16.4l-1.3,4.4H18.1z"/>
	</g>
</g>
<g>
	<path class="st1" d="M25.1,13.5c-4.7,0-9.3,0-14,0c-0.6,0-1.1,0.2-1.4,0.8c0,5.4,0,10.9,0,16.3c0.2,0.4,0.6,0.7,1.1,0.7
		c0.7,0,1.3,0,2,0l1.6,0c0,0.2-0.1,0.4-0.1,0.6c0,1.4,1.2,2.6,2.6,2.6c1.4,0,2.6-1.2,2.6-2.6c0-0.2,0-0.4-0.1-0.6l3.4,0l0,0
		c0.7,0,1.4,0,2.2,0c1,0,1.4-0.4,1.4-1.4c0-5,0-10,0-15.1C26.5,13.9,26.2,13.5,25.1,13.5z M18.5,31.9c0,0.8-0.6,1.4-1.4,1.4
		c-0.8,0-1.4-0.6-1.4-1.4c0-0.8,0.6-1.4,1.4-1.4C17.8,30.5,18.5,31.1,18.5,31.9z"/>
	<path class="st1" d="M38.2,25c0-0.7-0.1-1.3-0.5-1.9c-1-1.6-2.1-3-3.3-4.5c-0.3-0.4-0.7-0.6-1.2-0.6c-1.7,0-3.4,0-5.1,0
		c-0.7,0-1.1,0.4-1.1,1.1c0,3.7,0,7.5,0,11.2c0,0.4,0.2,0.6,0.4,0.8c0.2,0.2,0.4,0.2,0.5,0.2l0,0l2.2,0c0,0.2-0.1,0.4-0.1,0.5
		c0,1.4,1.1,2.6,2.5,2.6c1.4,0.1,2.6-1.1,2.6-2.6c0-0.2,0-0.4-0.1-0.6l1.2,0c0,0,0,0,0.1,0l0.1,0l0,0c0.1,0,0.3,0,0.4,0
		c0.8,0,1.2-0.4,1.2-1.2c0-0.9,0-1.8,0-2.7C38.2,26.6,38.2,25.8,38.2,25z M34.1,31.9c0,0.8-0.6,1.4-1.4,1.4c-0.8,0-1.4-0.6-1.4-1.4
		c0-0.8,0.6-1.4,1.4-1.4C33.4,30.5,34.1,31.1,34.1,31.9z M36.2,24.6c-0.1,0.2-0.4,0.1-0.6,0.1c-0.8,0-1.5,0-2.3,0
		c-0.9,0-1.7,0-2.6,0c-0.3,0-0.4-0.1-0.4-0.4c0-1.3,0-2.5,0-3.8c0-0.3,0.1-0.3,0.3-0.3c0.7,0,1.5,0,2.2,0c0.3,0,0.5,0.1,0.6,0.3
		c0.8,1.1,1.6,2.3,2.4,3.4C36.2,24.1,36.4,24.4,36.2,24.6z"/>
</g>
</svg>
